<mxfile host="app.diagrams.net" modified="2020-08-14T05:58:01.940Z" agent="5.0 (Windows NT 10.0; Win64; x64) AppleWebKit/537.36 (KHTML, like Gecko) Chrome/84.0.4147.125 Safari/537.36" etag="Mp61pfEl7IbdfgV77Zaa" version="13.6.2" type="github">
  <diagram id="v_VABFhwEJnrIPi_Tfk3" name="Page-1">
    <mxGraphModel dx="1038" dy="624" grid="1" gridSize="10" guides="1" tooltips="1" connect="1" arrows="1" fold="1" page="1" pageScale="1" pageWidth="827" pageHeight="1169" math="0" shadow="0">
      <root>
        <mxCell id="0" />
        <mxCell id="1" parent="0" />
        <mxCell id="kWJTJ8_3YhhOp4ymUSMZ-16" style="edgeStyle=orthogonalEdgeStyle;rounded=0;orthogonalLoop=1;jettySize=auto;html=1;exitX=1;exitY=0.5;exitDx=0;exitDy=0;fontStyle=0" edge="1" parent="1" source="kWJTJ8_3YhhOp4ymUSMZ-14" target="kWJTJ8_3YhhOp4ymUSMZ-15">
          <mxGeometry relative="1" as="geometry" />
        </mxCell>
        <mxCell id="kWJTJ8_3YhhOp4ymUSMZ-17" value="object_id=user_id" style="edgeLabel;html=1;align=center;verticalAlign=middle;resizable=0;points=[];fontStyle=1" vertex="1" connectable="0" parent="kWJTJ8_3YhhOp4ymUSMZ-16">
          <mxGeometry x="-0.1448" y="-2" relative="1" as="geometry">
            <mxPoint as="offset" />
          </mxGeometry>
        </mxCell>
        <mxCell id="kWJTJ8_3YhhOp4ymUSMZ-14" value="" style="rounded=0;whiteSpace=wrap;html=1;" vertex="1" parent="1">
          <mxGeometry x="170" y="200" width="120" height="60" as="geometry" />
        </mxCell>
        <mxCell id="kWJTJ8_3YhhOp4ymUSMZ-15" value="" style="rounded=0;whiteSpace=wrap;html=1;" vertex="1" parent="1">
          <mxGeometry x="580" y="200" width="120" height="60" as="geometry" />
        </mxCell>
      </root>
    </mxGraphModel>
  </diagram>
</mxfile>
